# xmcd
#
# Track frame offsets:
#	150
#	29325
#	43012
#	55887
#	76237
#	102160
#	118060
#	136287
#	152127
#	168512
#	178492
#	189895
#	197320
#	214787
#	222792
#	239745
#	260107
#	300492
#
# Disc length: 4424 seconds
#
# Revision: 1
# Processed by: cddbd v1.5.2PL0 Copyright (c) Steve Scherf et al.
# Submitted via: EZCDAudioConverter 8.2.2.1
#
DISCID=01114612
DTITLE=アンセルメ/スイス・ロマンドO (1958.4) - ビゼー アルルの女,カルメン組曲他(アンセルメ)
DYEAR=1900
DGENRE=Classical Period
TTITLE0=ビゼー 「アルルの女」第1組曲 - 1. 前奏曲
TTITLE1=ビゼー 「アルルの女」第1組曲 - 2. メヌエット
TTITLE2=ビゼー 「アルルの女」第1組曲 - 3. アダージェット
TTITLE3=ビゼー 「アルルの女」第1組曲 - 4. カリヨン
TTITLE4=ビゼー 「アルルの女」第2組曲 - 1. 田園曲
TTITLE5=ビゼー 「アルルの女」第2組曲 - 2. 間奏曲
TTITLE6=ビゼー 「アルルの女」第2組曲 - 3. メヌエット
TTITLE7=ビゼー 「アルルの女」第2組曲 - 4. ファランドール
TTITLE8=ビゼー 「カルメン」組曲 - 1. 前奏曲
TTITLE9=ビゼー 「カルメン」組曲 - 2. アラゴネーズ
TTITLE10=ビゼー 「カルメン」組曲 - 3. 間奏曲
TTITLE11=ビゼー 「カルメン」組曲 - 4. アルカラの竜騎兵
TTITLE12=ビゼー 「カルメン」組曲 - 5. 密輸入者の行進
TTITLE13=ビゼー 「カルメン」組曲 - 6. ハバネラ
TTITLE14=ビゼー 「カルメン」組曲 - 7. 衛兵の交代
TTITLE15=ビゼー 「カルメン」組曲 - 8. ジプシーの踊り
TTITLE16=オッフェンバック 喜歌劇「天国と地獄」 序曲 (1858)
TTITLE17=シャブリエ 狂詩曲「スペイン」 (1882)
EXTD=
EXTT0=
EXTT1=
EXTT2=
EXTT3=
EXTT4=
EXTT5=
EXTT6=
EXTT7=
EXTT8=
EXTT9=
EXTT10=
EXTT11=
EXTT12=
EXTT13=
EXTT14=
EXTT15=
EXTT16=
EXTT17=
PLAYORDER=
